# xmcd
#
# Track frame offsets: 
#        150
#        12502
#        22110
#        34801
#        45724
#        59552
#        76052
#        86274
#        102527
#        115837
#        130994
#        142466
#        153948
#
# Disc length: 2337 seconds
#
# Revision: 0
# Processed by: cddbd v1.5.2PL0 Copyright (c) Steve Scherf et al.
# Submitted via: ExactAudioCopy v0.99pb5
#
DISCID=b1091f0d
DTITLE=Black Eyes and Neckties - Stilleto
DYEAR=2004
DGENRE=Indie Rock
TTITLE0=Back From The Dead
TTITLE1=Walk Like A Zombie
TTITLE2=Lycanthropy Wannabe
TTITLE3=Dirty Hands
TTITLE4=Tonight, Death Soars
TTITLE5=Riding Alone
TTITLE6=The Streets
TTITLE7="Love Never Dies"
TTITLE8=Barnacles
TTITLE9=Dia
TTITLE10=Red Lipstick
TTITLE11=Train
TTITLE12=Sagrada Familia
EXTD=
EXTT0=
EXTT1=
EXTT2=
EXTT3=
EXTT4=
EXTT5=
EXTT6=
EXTT7=
EXTT8=
EXTT9=
EXTT10=
EXTT11=
EXTT12=
PLAYORDER=
